<?xml version="1.0" encoding="utf-8"?>
<!-- Generator: Adobe Illustrator 19.0.0, SVG Export Plug-In . SVG Version: 6.00 Build 0)  -->
<svg version="1.1" id="Ebene_1" xmlns="http://www.w3.org/2000/svg" xmlns:xlink="http://www.w3.org/1999/xlink" x="0px" y="0px"
	 viewBox="0 0 256 256" style="enable-background:new 0 0 256 256;" xml:space="preserve">
<style type="text/css">
	.st0{fill:#FFFFFF;stroke:#FFFFFF;stroke-width:2;stroke-linecap:round;stroke-linejoin:round;}
	.st1{fill:none;stroke:#FFFFFF;stroke-width:4;}
	.st2{stroke:#FFFFFF;stroke-width:8;}
	.st3{stroke:#1D1D1D;stroke-width:14.601;}
	.st4{fill:#ED1C24;}
	.st5{fill:#FFFFFF;}
	.st6{fill:#FFFF00;stroke:#FFFF00;stroke-width:3;}
</style>
<path id="XMLID_4_" class="st0" d="M226.7,250.7H29.3c-13.2,0-24-10.8-24-24V29.3c0-13.2,10.8-24,24-24h197.3c13.2,0,24,10.8,24,24
	v197.3C250.7,239.9,239.9,250.7,226.7,250.7z"/>
<g id="XMLID_3_">
	<path id="path9694" class="st1" d="M175.2,225.7c0,10.3-33.4,18.7-74.7,18.7s-74.7-8.4-74.7-18.7S59.3,207,100.5,207
		S175.2,215.4,175.2,225.7z"/>
	<path id="path9686" d="M101,15.9c-17.4,0.8-72.2-1-72.2,14.8v186.7c0,15.8,32,28.5,71.7,28.5c39.7,0,71.7-12.7,71.7-28.5V30.7
		C172.1,14.9,123.3,16.7,101,15.9L101,15.9z"/>
	<path id="path9690" class="st2" d="M175.2,32.8c0,10.3-33.4,18.7-74.7,18.7s-74.7-8.4-74.7-18.7s33.4-18.7,74.7-18.7
		S175.2,22.4,175.2,32.8z"/>
	<path id="path9696_2_" class="st3" d="M100.5,183.1"/>
</g>
<g id="layer1" transform="translate(-61.49 -74.609)" inkscape:label="Layer 1" inkscape:groupmode="layer">
	<g id="path2244">
		<path id="XMLID_35_" class="st4" d="M109.2,248.1v-13.2h5.9c-8.4-7.5-21.5-23.9-20.8-51.9c0.1-4.4,0.8-8.6,1.5-12.6
			c2.1-12.7,3.7-21.9-14.2-30.9l-3.1-1.6l2.5-2.4c2.3-2.2,5.2-3.3,8.7-3.3c7.4,0,15.8,5.2,20.4,8.6c0.8-9.5,1.2-32.2-12.4-41.8
			c-2-1.4-1.8-3.1-1.6-3.7c0.5-1.5,1.9-2.3,4.3-2.3c4.3,0,17.5,3,29.5,16.3c2.6-6.5,6.3-23.6-12-48l-2.5-3.4l4.2-0.6
			c0.9-0.1,1.8-0.2,2.7-0.2c13,0,23.9,13,28.1,18.8c0.3-2.2-0.7-6.6-1.8-11.1c-3.1-13-7.7-32.6,7-47.8l4.3-4.5v6
			c4.8,32.4,12.7,40.1,12.8,40.2l0.1,0.1l0.1,0.1c0.5,0.5,8.8,9.6,14.3,21.5c-0.8-3.6-2.5-8.7-5.8-15.6l-2.6-5.3l5.6,1.8
			c28.1,8.9,27.9,45.2,27.9,62.6c0,1.2,0,2.5,0,3.7c6.2-7.5,4.1-21.9,4.1-22.1l-0.7-4.9l4.4,2.3c0.6,0.3,14.6,8,14.6,28
			c0,4-1.6,10.2-3,15.6c-0.6,2.1-1.2,4.7-1.6,6.7c0.9-1.1,1.8-2.7,2.5-5.3l1.2-4.9l3.2,3.9c7.9,9.6,7.2,32,7.2,33
			c-1.9,30.5-20.6,47.1-33.4,54.9h4.9v13.2H109.2z M132.3,181c-6.1,14.7-2.7,26.2,1.6,33.5c6.9,11.9,18.7,17.9,23.4,17.9
			c0.8,0,1.1-0.2,1.1-0.2l0.3-0.2l0.3-0.1c28.2-7.5,38.9-26.2,42.9-37.3c-2.6,1.9-5.9,3.7-10,4.6l-8.4,1.9l6.1-6.1
			c5.1-5.1,7.5-14.3,8.3-20.3c-4.1,5.7-10.6,14-16.8,15.9l-3.7,1.1l0.5-3.9c1.5-10.6,2.7-25.9,1.7-33.7c-3,5.3-7.8,15.7-11.2,32.2
			l-0.5,2.3l-2.3-0.3c-6.9-1-11.3-8.6-13.7-14.1c-2.3,9.5,1.8,26.7,3.9,33.6l1,3.2h-3.4C152.1,210.9,140.1,210,132.3,181z"/>
		<path id="XMLID_30_" class="st5" d="M157.4,18.7L157.4,18.7c5.1,34.4,13.7,41.9,13.7,41.9s15.4,16.7,18,34c0,0.3,0.1,0.4,0.1,0.4
			c0.4,0,1-7,1-7s2-6.7-6.6-24.3c33.4,10.6,24.2,64,26.6,68.9c11.7-6.7,8.6-27.4,8.6-27.4s13.3,7,13.3,25.8c0,8.1-7.3,26.6-4.4,26.6
			c0,0,0.1,0,0.1,0c0,0,5.1-0.8,7-9c7.4,9,6.6,31.3,6.6,31.3c-2.4,38.4-33,54-41.1,57.5h12.5v8.2H111.7v-8.2h10.7
			c-4-2.6-26.4-18.6-25.6-54.4c0.4-18,11.4-32.8-14.1-45.8c1.9-1.9,4.3-2.6,6.9-2.6c9.9,0,22.4,10.8,22.4,10.8s5.9-35.3-12.9-48.5
			c-1.2-0.9-0.6-1.5,1.3-1.5c5,0,18.7,4.1,30,18.3c0,0,0,0,0,0c0.1,0,14.3-20.8-10.6-54c0.8-0.1,1.6-0.2,2.4-0.2
			c15,0,27.7,20.1,27.7,20.1C161.3,77,134.7,42.2,157.4,18.7 M166,185.8c-9.1-1.3-13.7-18-13.7-18c-8.6,9.4,1.2,40.7,1.2,40.7
			s-12.9,0-20.3-34.8c-20.7,36.5,12.6,61.2,24.1,61.2c1,0,1.8-0.2,2.4-0.6c43.2-11.5,46.9-48.1,46.9-48.1s-5.1,8.3-15.2,10.6
			c8.8-8.8,10.6-28.8,8.6-28.8c-0.1,0-0.3,0.1-0.4,0.3c-2.1,2.3-11.3,17.6-19.2,20c0,0,4.7-33.3,0-39.9
			C180.5,148.2,171.5,159.1,166,185.8 M162.2,6.5l-8.4,8.7c-15.6,16.2-10.8,36.6-7.6,50.1c0.2,0.7,0.4,1.5,0.5,2.3
			c-5.8-6.1-14.5-13-24.4-13c-1,0-2.1,0.1-3.1,0.2l-8.3,1.2l5,6.7c14.6,19.5,14.6,34,12.9,41.7c-10.6-10.2-22.2-14-28.3-14
			c-4.9,0-6.3,2.8-6.7,4.1c-0.6,1.9-0.2,4.6,2.5,6.5c10.2,7.2,12,23.8,11.6,35.2c-5-3.2-11.9-6.6-18.2-6.6c0,0,0,0,0,0
			c-4.1,0-7.7,1.4-10.4,4l-5.1,4.9l6.3,3.2c16.2,8.2,14.9,15.8,12.8,28.3c-0.7,4.1-1.4,8.3-1.5,12.9c-0.6,24.5,9,40.4,17.3,49.5
			h-2.4v5v8.2v5h5h101.2h5v-5v-8.2v-4.5c2.8-2.1,5.8-4.7,8.7-7.6c12.1-12.3,18.7-27.5,19.8-45l0-0.1l0-0.1
			c0.1-2.5,0.6-24.5-7.8-34.7l-3.2-3.9c0.9-3.9,1.6-7.6,1.6-10.5c0-21.5-15.3-29.9-15.9-30.2l-8.1-4.3c-0.4-2.4-0.9-4.8-1.6-7.1
			c-4.4-16-13.2-26.2-26.3-30.4L174,55.4l1,2c-0.1-0.1-0.2-0.2-0.2-0.2l-0.3-0.3l0,0c-0.8-0.9-7.6-9.4-12-38.5L162.2,6.5L162.2,6.5z
			 M169.9,191.4l1-4.6c1.9-9.5,4.4-16.9,6.6-22.4c-0.2,6.6-0.8,14.9-2,23l-1.1,7.7l7.5-2.2c3.8-1.1,7.4-4.1,10.8-7.7
			c-1.2,3.1-2.8,6-4.8,8l-12.2,12.3l16.9-3.8c1.5-0.3,3-0.8,4.3-1.3c-0.6,1.1-1.2,2.3-1.9,3.5c-7.7,12.7-20,21.3-36.4,25.7l-0.7,0.2
			l-0.3,0.2c0,0-0.1,0-0.1,0c-4,0-14.8-5.7-21.2-16.6c-3.2-5.5-5.9-13.6-3.8-23.8c2.8,7.9,6.2,14,10.2,18.2c5.4,5.6,10.1,5.9,11,5.9
			h6.8l-2-6.5c-2.1-6.9-4.2-16.6-4.4-24.3c2.8,3.9,6.6,7.3,11.5,8.1L169.9,191.4L169.9,191.4z"/>
	</g>
	<path id="XMLID_23_" class="st6" d="M191.8,197.1c9.3-9.6,10.7-32.2,8.1-29.3c-2,2.3-11.3,18-19,20.4c0,0,4.7-34.1,0-40.9
		c0,0-8.9,11.2-14.4,38.5c-9-1.4-13.6-18.4-13.6-18.4c-8.5,9.6,1.2,41.7,1.2,41.7s-12.8,0-20.2-35.7c-22.3,40.6,18.6,66.9,26.4,62.1
		c42.9-11.7,46.6-49.3,46.6-49.3S201.8,194.8,191.8,197.1z"/>
</g>
</svg>
